_________________________  Visit us at _________________________
  
http://p2pdl.com  ____________________________  http://p2pdl.com


That Thing You Do 1996 BRRip 720p x264 AAC - PRiSTiNE [P2PDL]

Genre: Comedy | Drama | Music
Plot: A Pennsylvania band scores a hit in 1964 and rides 
the star-making machinery as long as it can, with lots 
of help from its manager.
Director: Tom Hanks
Stars: Tom Everett Scott, Liv Tyler, Tom Hanks
Rated: Rated PG for some language

Info: 
http://www.imdb.com/title/tt0117887/

General
Complete name                  : That Thing You Do 1996 BRRip 720p x264 AAC - PRiSTiNE.mp4
Format                         : MPEG-4
Format profile                 : Base Media
File size                      : 824 MiB
Duration                       : 2h 27mn
Overall bit rate mode          : Variable
Overall bit rate               : 781 Kbps

Video
Format                         : AVC
Format/Info                    : Advanced Video Codec
Format profile                 : High 10@L4.1
Bit rate                       : 699 Kbps
Width                          : 1 280 pixels
Height                         : 688 pixels
Display aspect ratio           : 1.85:1
Frame rate mode                : Constant
Frame rate                     : 23.976 fps
Bit depth                      : 10 bits
Stream size                    : 737 MiB (89%)
Writing library                : x264 core 130 r2273 b3065e6

Audio
Format                         : AAC
Format/Info                    : Advanced Audio Codec
Bit rate                       : 79.7 Kbps
Channel(s)                     : 2 channels
Channel positions              : Front: L R
Sampling rate                  : 48.0 KHz / 24.0 KHz
Stream size                    : 84.1 MiB (10%)
Language                       : English

Subtitle                       : Yes (English)
Source                         : Extended.Cut.720p.BluRay.DD5.1.x264-HiDt (Thanks)

Screens:
 
http://www.ultraimg.com/images/KgMIQ.jpg 
http://www.ultraimg.com/images/6QT9d.jpg 
http://www.ultraimg.com/images/EI4nW.jpg 
http://www.ultraimg.com/images/cVRj.jpg 
http://www.ultraimg.com/images/rOaWE.jpg

----------------------------------------------------------------------------------------------------


Encoded using revolutionary 10bit encoding, which enables us to provide you more crispier 
and sharper images at small sizes, just make sure you follow our instructions without a fault.
Recommend to you to use latest version of VLC player. Install K-Lite Codec Pack or shark007 codecs
in case of any kind of problem in playback (For non-VLC Media Player users). Alternatively, install
Core AVC codecs, the fastest decoder that there is coupled with Community Center Codec Pack and play
on Windows Media Player Classic. Check sample to be sure.
Enjoy!

Encoder Notes:Looking For Early Access To Anything You Can Provide DVDScr, R5, DVDR, BluRay, Direct
Audio, Music Releases and Seedboxes. We require dedicated servers, so as to do more 
and fast releases of movies.
If You Got anything to offer please contact us at "prg@hush.com".

Face book Fan Page:   
http://www.fb.me/p2pdl